<?xml version="1.0" encoding="US-ASCII" standalone="no"?>
<!DOCTYPE svg PUBLIC "-//W3C//DTD SVG 1.1//EN"
  "http://www.w3.org/Graphics/SVG/1.1/DTD/svg11.dtd">
<svg width="800" height="600" xmlns="http://www.w3.org/2000/svg" version="1.1"><g transform="translate(400,300)"><g fill="#ff0000" fill-opacity="1"><g transform="rotate(0)"><animateTransform attributeName="transform" type="rotate" repeatCount="indefinite" begin="0" dur="60" keyTimes="0;1" values="0;360"/><g transform="translate(-1,-200)"><rect width="2" height="205"/></g></g></g><g fill="#000000" fill-opacity="1"><g transform="rotate(0)"><animateTransform attributeName="transform" type="rotate" repeatCount="indefinite" begin="0" dur="3600" keyTimes="0;1" values="0;360"/><g transform="rotate(60)"><polygon points="-10.0,10.0 0.0,-200.0 10.0,10.0"/></g></g></g><g fill="#000000" fill-opacity="1"><g transform="rotate(0)"><animateTransform attributeName="transform" type="rotate" repeatCount="indefinite" begin="0" dur="43200" keyTimes="0;1" values="0;360"/><g transform="rotate(300)"><polygon points="-10.0,10.0 0.0,-130.0 10.0,10.0"/></g></g></g><g fill="#000000" fill-opacity="1"><g transform="rotate(0)"><g transform="translate(-2,-240)"><rect width="4" height="30"/></g></g><g transform="rotate(30)"><g transform="translate(-2,-240)"><rect width="4" height="30"/></g></g><g transform="rotate(60)"><g transform="translate(-2,-240)"><rect width="4" height="30"/></g></g><g transform="rotate(90)"><g transform="translate(-2,-240)"><rect width="4" height="30"/></g></g><g transform="rotate(120)"><g transform="translate(-2,-240)"><rect width="4" height="30"/></g></g><g transform="rotate(150)"><g transform="translate(-2,-240)"><rect width="4" height="30"/></g></g><g transform="rotate(180)"><g transform="translate(-2,-240)"><rect width="4" height="30"/></g></g><g transform="rotate(210)"><g transform="translate(-2,-240)"><rect width="4" height="30"/></g></g><g transform="rotate(240)"><g transform="translate(-2,-240)"><rect width="4" height="30"/></g></g><g transform="rotate(270)"><g transform="translate(-2,-240)"><rect width="4" height="30"/></g></g><g transform="rotate(300)"><g transform="translate(-2,-240)"><rect width="4" height="30"/></g></g><g transform="rotate(330)"><g transform="translate(-2,-240)"><rect width="4" height="30"/></g></g></g></g></svg>
